<?xml version="1.0" encoding="utf-8"?>
<!-- Svg Vector Icons : http://www.onlinewebfonts.com/icon -->
<!DOCTYPE svg PUBLIC "-//W3C//DTD SVG 1.1//EN" "http://www.w3.org/Graphics/SVG/1.1/DTD/svg11.dtd">
<svg version="1.1" xmlns="http://www.w3.org/2000/svg" xmlns:xlink="http://www.w3.org/1999/xlink" x="0px" y="0px" viewBox="0 0 256 256" enable-background="new 0 0 256 256" xml:space="preserve">
<metadata> Svg Vector Icons : http://www.onlinewebfonts.com/icon </metadata>
<g><g><g><path fill="#000000" d="M124.8,10.5c-0.8,0.3-2.1,1-2.9,1.6c-0.8,0.6-6,7.6-11.7,15.5c-5.6,8-11,15.2-11.8,16.2c-2,2.2-5.8,3.9-8.9,3.9c-1.3,0-9.9-1.3-19.1-2.9c-9.1-1.6-17.8-2.9-19.2-2.9c-5.1,0-9,3.3-9.5,8.1c-0.1,1.6,0.8,8.5,3,21.3l3.2,19l-0.8,2.7c-0.5,1.7-1.5,3.4-2.6,4.7c-1,1.1-8.6,6.7-16.8,12.6C10.7,122.3,10,122.9,10,127.8c0,5.3,0.3,5.7,18.4,18.4c17.1,12.1,18,12.9,19,17.8c0.5,2.2,0.3,4.1-2.6,20.6c-1.7,10-3.1,19.1-3.1,20.1c0,2.3,1,5,2.5,6.6c1.4,1.5,4.5,2.9,6.5,2.9c0.9,0,10-1.4,20.1-3.1c20.2-3.5,20.9-3.5,25-1.1c2.2,1.3,3.5,2.9,13.8,17.4c12.8,18,13.3,18.5,18.3,18.5s5.5-0.6,18.3-18.6c10.3-14.6,11.5-16.1,13.8-17.4c4.1-2.3,4.7-2.3,25,1.1c10.2,1.7,19.2,3.1,20.1,3.1c2,0,5.1-1.4,6.5-2.9c1.5-1.6,2.5-4.3,2.5-6.6c0-1-1.4-10.1-3.1-20.1c-2.8-16.5-3.1-18.5-2.6-20.6c1-4.6,2.3-6,11.1-12.2c24-17,24.1-17,25.4-19.8c1-2,1.2-3,1-5c-0.4-4.2-1.6-5.4-18-17c-8.2-5.9-15.8-11.5-16.8-12.6c-1.1-1.2-2-3-2.6-4.7l-0.8-2.7l3.2-19c2.1-12.8,3.1-19.7,3-21.3c-0.5-4.8-4.2-8.1-9.2-8.1c-1.6,0-10.3,1.3-19.5,2.9c-9.2,1.6-17.7,2.9-19.1,2.9c-3.1,0-6.9-1.6-8.9-3.9c-0.9-1-6.2-8.2-11.8-16.2c-5.6-8-10.9-15-11.7-15.5C131.1,10,127.8,9.5,124.8,10.5z M130.7,18.9c0.8,1,5.6,7.8,10.8,15.1c5.2,7.3,10.2,14.1,11.1,15.1c1,1,3.3,2.6,5.2,3.5c5.6,2.8,7.1,2.7,28.8-1c20.6-3.5,20.4-3.5,20.4-0.2c0,1-1.3,9.5-2.9,18.7c-1.6,9.2-2.9,18.2-2.9,19.9c0,4.8,2.4,10.5,6,13.7c0.7,0.6,7.9,5.9,16.1,11.7c8.2,5.8,15.1,10.9,15.4,11.3c1.1,1.9-0.2,3-16.1,14.3c-14.5,10.2-15.9,11.3-17.7,14.1c-2.4,3.5-3.5,7-3.5,10.9c0,1.5,1.3,10.4,2.9,19.7c1.6,9.3,2.9,17.7,2.9,18.6c0,2-0.7,2.8-2.5,2.8c-0.7,0-9.5-1.4-19.5-3.1c-16.7-2.9-18.5-3.1-21.2-2.7c-3.3,0.5-7.4,2.2-9.9,4.2c-1,0.7-6.7,8.3-13,17.1c-6.2,8.8-11.6,16-12.1,16.1c-0.5,0.2-1.2,0.2-1.7,0c-0.5-0.2-5.9-7.4-12.1-16.1c-6.1-8.7-11.9-16.4-12.8-17.1c-2.7-2.1-6.4-3.8-9.9-4.3c-3.1-0.5-4.1-0.4-21.5,2.6c-10,1.7-18.8,3.1-19.5,3.1c-1.8,0-2.5-0.8-2.5-2.9c0-0.9,1.4-9.8,3.1-19.6c2.8-16.4,3-18.2,2.6-21c-0.6-3.5-2.2-7.3-4.2-9.9c-0.8-1-8.4-6.7-17.2-13c-16-11.3-17-12.3-15.9-14.2c0.3-0.4,7.2-5.5,15.4-11.3c8.2-5.8,15.4-11.1,16.1-11.7c3.5-3.2,5.9-8.8,5.9-13.7c0-1.7-1.3-10.5-2.9-19.8c-1.6-9.2-2.9-17.6-2.9-18.7c0-3.3-0.1-3.3,20.5,0.2c21.6,3.7,23.2,3.8,28.7,1c1.9-1,4.2-2.5,5.2-3.5c1-1,6.3-8.2,11.8-16.1c5.6-7.9,10.4-14.7,10.9-15.1C127.1,16.5,129.1,16.9,130.7,18.9z"/><path fill="#000000" d="M90.7,79.8C79.3,82.3,71.1,92.3,71.1,104c0,7.6,2.4,13.5,7.8,18.5c5,4.8,10.4,7,17.1,7c11.6,0,21.1-7.2,24.5-18.5c1-3.3,1-9.5,0-13.1c-2.3-8.9-10.1-16.2-19.1-18.1C97.4,78.9,94.8,78.9,90.7,79.8z M99.1,86.7c5.9,1,10.9,5,13.5,10.4c1,2.2,1.2,3.3,1.2,7.1c0,4-0.1,4.9-1.4,7.5c-1,2-2.2,3.8-4.1,5.5c-9.5,8.8-24.5,5.3-29-6.7c-1.5-4-1.2-10.2,0.6-14c2.3-4.8,7.6-8.9,12.9-9.9C95.6,86.1,95.9,86.1,99.1,86.7z"/><path fill="#000000" d="M145.9,97.9c-7.2,9.6-22.4,30.1-33.9,45.4c-11.4,15.3-20.8,28-20.7,28.1c0,0.1,1.2,1.1,2.7,2.2c2.5,1.9,2.8,2,3.5,1.2c0.8-0.8,66-88.3,66.8-89.5c0.2-0.4-0.6-1.3-2.5-2.8l-2.8-2.2L145.9,97.9z"/><path fill="#000000" d="M153.3,127.4c-8.6,2.3-15.8,9.4-18,17.9c-0.9,3.4-0.9,9.5,0,13.1c2.5,9.6,11,17,21,18.4c9,1.3,18.2-2.7,23.8-10.1c2.5-3.4,3.9-7,4.6-11.9c1.7-12-6.6-24.2-18.7-27.4C162.7,126.5,156.5,126.5,153.3,127.4z M166.2,135c7.1,3,11.3,9.3,11.3,16.9c0,7-3.6,12.7-10,15.8c-3,1.5-3.5,1.6-8,1.6c-4.1,0-5.1-0.1-7.5-1.3c-3.8-1.8-6.8-4.7-8.6-8.4c-1.4-2.9-1.5-3.5-1.5-7.7c0-4.1,0.1-4.8,1.5-7.6c2.3-4.9,6-8.1,11.4-9.9C157.3,133.6,163.7,133.9,166.2,135z"/></g></g></g>
</svg>